<svg width="1060" height="1061" viewBox="0 0 1060 1061" fill="none" xmlns="http://www.w3.org/2000/svg">
<path d="M30.742 707.828V1029.99H352.902V707.828H30.742Z" fill="#F05C00"/>
<path d="M708.233 63.508C703.183 63.508 700.657 63.508 698.543 63.8361C686.609 65.6884 677.246 75.0516 675.393 86.9859C675.065 89.1 675.065 91.6254 675.065 96.6762C675.065 140.684 675.065 162.688 677.924 181.107C694.063 285.09 775.644 366.67 879.627 382.809C898.046 385.668 920.05 385.668 964.057 385.668C969.108 385.668 971.634 385.668 973.748 385.34C985.682 383.488 995.045 374.125 996.897 362.19C997.226 360.076 997.226 357.551 997.226 352.5V63.508H708.233Z" fill="#F05C00"/>
<path d="M10 271.802L788.323 1050.12L1016.12 822.323L237.802 44L10 271.802Z" fill="#F05C00"/>
<path d="M52.6795 685.766V1007.93H374.84V685.766H52.6795Z" fill="#049554"/>
<path d="M730.171 41.4455C725.12 41.4455 722.595 41.4455 720.481 41.7736C708.546 43.6259 699.183 52.9891 697.331 64.9234C697.003 67.0375 697.003 69.5629 697.003 74.6137C697.003 118.621 697.003 140.625 699.862 159.044C716.001 263.027 797.581 344.607 901.564 360.747C919.983 363.606 941.987 363.606 985.995 363.606C991.046 363.606 993.571 363.606 995.685 363.278C1007.62 361.425 1016.98 352.062 1018.83 340.128C1019.16 338.014 1019.16 335.488 1019.16 330.438V41.4455H730.171Z" fill="#049554"/>
<path d="M31.9375 249.739L810.26 1028.06L1038.06 800.26L259.739 21.9375L31.9375 249.739Z" fill="#049554"/>
<path d="M74.6175 663.828V985.989H396.778V663.828H74.6175Z" fill="black"/>
<path d="M752.109 19.508C747.058 19.508 744.533 19.508 742.419 19.8361C730.484 21.6884 721.121 31.0516 719.269 42.9859C718.941 45.1 718.941 47.6254 718.941 52.6762C718.941 96.6839 718.941 118.688 721.799 137.107C737.939 241.09 819.519 322.67 923.502 338.809C941.921 341.668 963.925 341.668 1007.93 341.668C1012.98 341.668 1015.51 341.668 1017.62 341.34C1029.56 339.488 1038.92 330.125 1040.77 318.19C1041.1 316.076 1041.1 313.551 1041.1 308.5V19.508H752.109Z" fill="black"/>
<path d="M53.8755 227.802L832.198 1006.12L1060 778.323L281.677 0L53.8755 227.802Z" fill="black"/>
</svg>
